<svg id="Just_AI_logo_W_White_dis" data-name="Just AI_logo W White+dis" xmlns="http://www.w3.org/2000/svg" viewBox="0 0 115.944 34.893">
  <defs>
    <style>
      .cls-1 {
        fill: #1b7abe;
      }

      .cls-1, .cls-2, .cls-3, .cls-4 {
        fill-rule: evenodd;
      }

      .cls-2 {
        fill: #93d5f6;
      }

      .cls-3 {
        fill: #1cbbee;
      }

      .cls-4, .cls-5 {
        fill: #fefefe;
      }
    </style>
  </defs>
  <path id="Path_2" data-name="Path 2" class="cls-1" d="M1169.4,393.616l-5.96,3.442a3.577,3.577,0,0,1-3.636.022l-6-3.464-5.771-3.33a3.6,3.6,0,0,1-2.03-3.236V373.194h.005a3.594,3.594,0,0,1,1.79-3.108l6-3.464,5.96-3.442a3.578,3.578,0,0,1,3.636-.022l6,3.464,5.771,3.331a3.6,3.6,0,0,1,2.03,3.236v13.856h-.006a3.593,3.593,0,0,1-1.79,3.108Z" transform="translate(-1146 -362.673)"/>
  <path id="Path_3" data-name="Path 3" class="cls-2" d="M1610.55,945.921l-5.388-9.33a2.324,2.324,0,0,0-4.036-.028l-5.4,9.358h.005l-.005.006-5.293,9.163a2.3,2.3,0,0,0-.428,1.351,2.333,2.333,0,0,0,2.33,2.33h21.606v-.011a2.323,2.323,0,0,0,2.013-3.475l-5.332-9.235C1610.594,946,1610.572,945.96,1610.55,945.921Z" transform="translate(-1587.531 -932.219)"/>
  <path id="Path_4" data-name="Path 4" class="cls-3" d="M2479.558,5138a11.883,11.883,0,0,1-16.558,0h16.558Z" transform="translate(-2455.677 -5111.448)"/>
  <path id="Path_5" data-name="Path 5" class="cls-3" d="M1818.481,1556.111l-4.137,7.161a11.754,11.754,0,0,1-.345-2.852,11.892,11.892,0,0,1,8.579-11.42l-4.1,7.106h.006l-.006.005Z" transform="translate(-1810.286 -1542.404)"/>
  <path id="Path_6" data-name="Path 6" class="cls-3" d="M4557.223,1564.256l-4.059-7.028-.067-.128-4.1-7.1a11.921,11.921,0,0,1,8.229,14.262Z" transform="translate(-4530.078 -1543.398)"/>
  <path id="Path_7" data-name="Path 7" class="cls-4" d="M1894.032,1472.7l4.059,7.028a11.851,11.851,0,0,1-3.269,5.688h-16.558a11.832,11.832,0,0,1-3.264-5.677l4.137-7.161.006-.005h-.006l4.1-7.106a11.993,11.993,0,0,1,6.628,0l4.1,7.1.067.128Z" transform="translate(-1870.947 -1458.871)"/>
  <path id="Path_8" data-name="Path 8" class="cls-5" d="M8636.81,1776.161c-.294,0-.616.056-1.078.056-1.886,0-2.774-.778-2.774-2.5v-7.161h3.258a.928.928,0,1,0,0-1.857h-3.258v-2.775a1.038,1.038,0,1,0-2.074,0v2.775h-1.346a.929.929,0,1,0,0,1.857h1.346v7.295c0,2.746,1.563,4.253,4.415,4.253a5.778,5.778,0,0,0,1.7-.189.881.881,0,0,0-.188-1.751Zm-45.064-.456c2.574.245,4.826-.784,4.826-3.714v-12.1a1.1,1.1,0,0,1,2.2,0v12.1c0,4.053-3.481,6.383-7.334,5.81a1.066,1.066,0,1,1,.306-2.1Zm22.224-10.831v7.322c0,3.625-2.218,5.555-5.66,5.555-3.58,0-5.6-2.09-5.6-5.555v-7.322a1.059,1.059,0,0,1,2.117,0v7.322c0,2.28,1.184,3.536,3.485,3.536,2.264,0,3.536-1.179,3.536-3.536v-7.322a1.059,1.059,0,0,1,2.118,0Zm4.389,9.174a5,5,0,0,0,1.684,1.423c1.507.751,4.976.778,4.976-1.529a1.532,1.532,0,0,0-.728-1.4c-1.946-1.234-5.654-1.168-6.784-3.542a3.768,3.768,0,0,1,.316-3.675c2.142-3.024,6.328-2.246,8.57-.017a.958.958,0,0,1,.016,1.351,1.037,1.037,0,0,1-1.451-.028c-1.323-1.323-4.559-2.085-5.549-.133a1.651,1.651,0,0,0,.627,2.219c2.531,1.54,7.007.912,7.007,5.148a3.448,3.448,0,0,1-1.462,2.914,6.727,6.727,0,0,1-6.482.439,6.4,6.4,0,0,1-2.3-1.852,1,1,0,0,1,.084-1.474,1.069,1.069,0,0,1,1.483.161Zm37.818-1.724h-8.067l-1.846,4.559a1.031,1.031,0,1,1-1.952-.661l6.855-16.78a1.1,1.1,0,0,1,2.046-.011l6.846,16.736a1.07,1.07,0,0,1-2,.75c-.65-1.507-1.262-3.075-1.885-4.6Zm-7.245-2.1h6.388l-3.218-7.862Zm16.019,6.277a1.1,1.1,0,0,1-2.2-.022v-16.575a1.1,1.1,0,0,1,2.2,0v16.6Z" transform="translate(-8549.006 -1750.977)"/>
</svg>
